%TF.GenerationSoftware,KiCad,Pcbnew,10.0.3*%
%TF.CreationDate,2026-07-02T20:47:22+08:00*%
%TF.ProjectId,fallout,66616c6c-6f75-4742-9e6b-696361645f70,rev?*%
%TF.SameCoordinates,Original*%
%TF.FileFunction,Copper,L2,Bot*%
%TF.FilePolarity,Positive*%
%FSLAX46Y46*%
G04 Gerber Fmt 4.6, Leading zero omitted, Abs format (unit mm)*
G04 Created by KiCad (PCBNEW 10.0.3) date 2026-07-02 20:47:22*
%MOMM*%
%LPD*%
G01*
G04 APERTURE LIST*
G04 Aperture macros list*
%AMRoundRect*
0 Rectangle with rounded corners*
0 $1 Rounding radius*
0 $2 $3 $4 $5 $6 $7 $8 $9 X,Y pos of 4 corners*
0 Add a 4 corners polygon primitive as box body*
4,1,4,$2,$3,$4,$5,$6,$7,$8,$9,$2,$3,0*
0 Add four circle primitives for the rounded corners*
1,1,$1+$1,$2,$3*
1,1,$1+$1,$4,$5*
1,1,$1+$1,$6,$7*
1,1,$1+$1,$8,$9*
0 Add four rect primitives between the rounded corners*
20,1,$1+$1,$2,$3,$4,$5,0*
20,1,$1+$1,$4,$5,$6,$7,0*
20,1,$1+$1,$6,$7,$8,$9,0*
20,1,$1+$1,$8,$9,$2,$3,0*%
G04 Aperture macros list end*
%TA.AperFunction,ComponentPad*%
%ADD10RoundRect,0.250000X0.550000X-0.550000X0.550000X0.550000X-0.550000X0.550000X-0.550000X-0.550000X0*%
%TD*%
%TA.AperFunction,ComponentPad*%
%ADD11C,1.600000*%
%TD*%
%TA.AperFunction,ComponentPad*%
%ADD12C,2.200000*%
%TD*%
%TA.AperFunction,ComponentPad*%
%ADD13C,1.524000*%
%TD*%
%TA.AperFunction,SMDPad,CuDef*%
%ADD14RoundRect,0.152400X0.609600X-1.063600X0.609600X1.063600X-0.609600X1.063600X-0.609600X-1.063600X0*%
%TD*%
%TA.AperFunction,SMDPad,CuDef*%
%ADD15RoundRect,0.152400X-0.609600X1.063600X-0.609600X-1.063600X0.609600X-1.063600X0.609600X1.063600X0*%
%TD*%
%TA.AperFunction,SMDPad,CuDef*%
%ADD16RoundRect,0.205000X0.470000X0.205000X-0.470000X0.205000X-0.470000X-0.205000X0.470000X-0.205000X0*%
%TD*%
%TA.AperFunction,ViaPad*%
%ADD17C,0.600000*%
%TD*%
%TA.AperFunction,Conductor*%
%ADD18C,0.200000*%
%TD*%
G04 APERTURE END LIST*
D10*
%TO.P,D1,1,K_1*%
%TO.N,/ROW1*%
X115500000Y-93310000D03*
D11*
%TO.P,D1,2,A_2*%
%TO.N,Net-(D1-A)*%
X115500000Y-85690000D03*
%TD*%
D12*
%TO.P,SW1,1,1_1*%
%TO.N,/COL1*%
X129540000Y-85420000D03*
%TO.P,SW1,2,2_2*%
%TO.N,Net-(D1-A)*%
X123190000Y-87960000D03*
%TD*%
%TO.P,SW2,1,1_1*%
%TO.N,/COL2*%
X152540000Y-85420000D03*
%TO.P,SW2,2,2_2*%
%TO.N,Net-(D2-A)*%
X146190000Y-87960000D03*
%TD*%
D10*
%TO.P,D2,1,K_1*%
%TO.N,/ROW1*%
X138500000Y-94310000D03*
D11*
%TO.P,D2,2,A_2*%
%TO.N,Net-(D2-A)*%
X138500000Y-86690000D03*
%TD*%
D13*
%TO.P,U1,1,P26_A0_D0_1*%
%TO.N,/ROW1*%
X93880000Y-83500000D03*
D14*
X93880000Y-82665000D03*
D13*
%TO.P,U1,2,P27_A1_D1_2*%
%TO.N,/COL1*%
X96420000Y-83500000D03*
D14*
X96420000Y-82665000D03*
D13*
%TO.P,U1,3,P28_A2_D2_3*%
%TO.N,/COL2*%
X98960000Y-83500000D03*
D14*
X98960000Y-82665000D03*
D13*
%TO.P,U1,4,P29_A3_D3_4*%
%TO.N,unconnected-(U1-P29_A3_D3-Pad4)_1*%
X101500000Y-83500000D03*
D14*
%TO.N,unconnected-(U1-P29_A3_D3-Pad4)*%
X101500000Y-82665000D03*
D13*
%TO.P,U1,5,P6_SDA_D4_5*%
%TO.N,unconnected-(U1-P6_SDA_D4-Pad5)*%
X104040000Y-83500000D03*
D14*
%TO.N,unconnected-(U1-P6_SDA_D4-Pad5)_1*%
X104040000Y-82665000D03*
D13*
%TO.P,U1,6,P7_SCL_D5_6*%
%TO.N,unconnected-(U1-P7_SCL_D5-Pad6)*%
X106580000Y-83500000D03*
D14*
%TO.N,unconnected-(U1-P7_SCL_D5-Pad6)_1*%
X106580000Y-82665000D03*
D13*
%TO.P,U1,7,P0_D6_TX_7*%
%TO.N,unconnected-(U1-P0_D6_TX-Pad7)_1*%
X109120000Y-83500000D03*
D14*
%TO.N,unconnected-(U1-P0_D6_TX-Pad7)*%
X109120000Y-82665000D03*
D15*
%TO.P,U1,8,P1_D7_RX_8*%
%TO.N,unconnected-(U1-P1_D7_RX-Pad8)*%
X109120000Y-99575000D03*
D13*
%TO.N,unconnected-(U1-P1_D7_RX-Pad8)_1*%
X109120000Y-98740000D03*
D15*
%TO.P,U1,9,P2_D8_SCK_9*%
%TO.N,unconnected-(U1-P2_D8_SCK-Pad9)*%
X106580000Y-99575000D03*
D13*
%TO.N,unconnected-(U1-P2_D8_SCK-Pad9)_1*%
X106580000Y-98740000D03*
D15*
%TO.P,U1,10,P4_D9_MISO_10*%
%TO.N,unconnected-(U1-P4_D9_MISO-Pad10)*%
X104040000Y-99575000D03*
D13*
%TO.N,unconnected-(U1-P4_D9_MISO-Pad10)_1*%
X104040000Y-98740000D03*
D15*
%TO.P,U1,11,P3_D10_MOSI_11*%
%TO.N,Net-(D3-DIN)*%
X101500000Y-99575000D03*
D13*
X101500000Y-98740000D03*
D15*
%TO.P,U1,12,3V3_12*%
%TO.N,unconnected-(U1-3V3-Pad12)_1*%
X98960000Y-99575000D03*
D13*
%TO.N,unconnected-(U1-3V3-Pad12)*%
X98960000Y-98740000D03*
D15*
%TO.P,U1,13,GND_13*%
%TO.N,GND*%
X96420000Y-99575000D03*
D13*
X96420000Y-98740000D03*
D15*
%TO.P,U1,14,VBUS_14*%
%TO.N,+5V*%
X93880000Y-99575000D03*
D13*
X93880000Y-98740000D03*
%TD*%
D16*
%TO.P,D3,1,VSS_1*%
%TO.N,GND*%
X129500000Y-95750000D03*
%TO.P,D3,2,DIN_2*%
%TO.N,Net-(D3-DIN)*%
X129500000Y-94250000D03*
%TO.P,D3,3,VDD_3*%
%TO.N,+5V*%
X124050000Y-94250000D03*
%TO.P,D3,4,DOUT_4*%
%TO.N,Net-(D3-DOUT)*%
X124050000Y-95750000D03*
%TD*%
%TO.P,D4,1,VSS_1*%
%TO.N,GND*%
X152645000Y-95750000D03*
%TO.P,D4,2,DIN_2*%
%TO.N,Net-(D3-DOUT)*%
X152645000Y-94250000D03*
%TO.P,D4,3,VDD_3*%
%TO.N,+5V*%
X147195000Y-94250000D03*
%TO.P,D4,4,DOUT_4*%
%TO.N,unconnected-(D4-DOUT-Pad4)*%
X147195000Y-95750000D03*
%TD*%
D17*
%TO.N,Net-(D3-DIN)*%
X137500000Y-96500000D03*
%TO.N,GND*%
X127000000Y-97900000D03*
%TD*%
%TO.N,Net-(D3-DIN)*%
D18*
X129500000Y-94250000D02*
X135250000Y-94250000D01*
X135250000Y-94250000D02*
X137500000Y-96500000D01*
%TO.N,GND*%
X152645000Y-96355000D02*
X151500000Y-97500000D01*
X128000000Y-97900000D02*
X129500000Y-96400000D01*
X127000000Y-97900000D02*
X128000000Y-97900000D01*
X152645000Y-95750000D02*
X152645000Y-96355000D01*
X130500000Y-97500000D02*
X129500000Y-96500000D01*
X129500000Y-96400000D02*
X129500000Y-95750000D01*
X151500000Y-97500000D02*
X130500000Y-97500000D01*
X129500000Y-96500000D02*
X129500000Y-95750000D01*
%TO.N,+5V*%
X124050000Y-90126598D02*
X126026598Y-88150000D01*
X124050000Y-94250000D02*
X124050000Y-90126598D01*
X96620000Y-96000000D02*
X93880000Y-98740000D01*
X145945000Y-93000000D02*
X132823402Y-93000000D01*
X147195000Y-94250000D02*
X145945000Y-93000000D01*
X126026598Y-88150000D02*
X127973402Y-88150000D01*
X124050000Y-94250000D02*
X122300000Y-96000000D01*
X127973402Y-88150000D02*
X132823402Y-93000000D01*
X122300000Y-96000000D02*
X96620000Y-96000000D01*
%TO.N,Net-(D3-DOUT)*%
X151289858Y-98500000D02*
X125500000Y-98500000D01*
X125500000Y-98500000D02*
X124050000Y-97050000D01*
X124050000Y-97050000D02*
X124050000Y-95750000D01*
X153620000Y-95225000D02*
X153620000Y-96169858D01*
X153620000Y-96169858D02*
X151289858Y-98500000D01*
X152645000Y-94250000D02*
X153620000Y-95225000D01*
%TD*%
%TA.AperFunction,Conductor*%
%TO.N,Net-(D1-A)*%
G36*
X161442539Y-78520185D02*
G01*
X161488294Y-78572989D01*
X161499500Y-78624500D01*
X161499500Y-102375500D01*
X161479815Y-102442539D01*
X161427011Y-102488294D01*
X161375500Y-102499500D01*
X91624500Y-102499500D01*
X91557461Y-102479815D01*
X91511706Y-102427011D01*
X91500500Y-102375500D01*
X91500500Y-98445458D01*
X92617500Y-98445458D01*
X92617500Y-100704541D01*
X92620412Y-100741546D01*
X92620413Y-100741552D01*
X92666434Y-100899954D01*
X92666435Y-100899957D01*
X92750405Y-101041943D01*
X92750412Y-101041952D01*
X92867047Y-101158587D01*
X92867051Y-101158590D01*
X92867053Y-101158592D01*
X93009041Y-101242564D01*
X93050816Y-101254701D01*
X93167447Y-101288586D01*
X93167450Y-101288586D01*
X93167452Y-101288587D01*
X93204466Y-101291500D01*
X93204474Y-101291500D01*
X94555526Y-101291500D01*
X94555534Y-101291500D01*
X94592548Y-101288587D01*
X94592550Y-101288586D01*
X94592552Y-101288586D01*
X94634323Y-101276449D01*
X94750959Y-101242564D01*
X94892947Y-101158592D01*
X95009592Y-101041947D01*
X95043268Y-100985003D01*
X95094337Y-100937321D01*
X95163079Y-100924817D01*
X95227668Y-100951462D01*
X95256732Y-100985004D01*
X95290406Y-101041944D01*
X95290412Y-101041952D01*
X95407047Y-101158587D01*
X95407051Y-101158590D01*
X95407053Y-101158592D01*
X95549041Y-101242564D01*
X95590816Y-101254701D01*
X95707447Y-101288586D01*
X95707450Y-101288586D01*
X95707452Y-101288587D01*
X95744466Y-101291500D01*
X95744474Y-101291500D01*
X97095526Y-101291500D01*
X97095534Y-101291500D01*
X97132548Y-101288587D01*
X97132550Y-101288586D01*
X97132552Y-101288586D01*
X97174323Y-101276449D01*
X97290959Y-101242564D01*
X97432947Y-101158592D01*
X97549592Y-101041947D01*
X97583268Y-100985003D01*
X97634337Y-100937321D01*
X97703079Y-100924817D01*
X97767668Y-100951462D01*
X97796732Y-100985004D01*
X97830406Y-101041944D01*
X97830412Y-101041952D01*
X97947047Y-101158587D01*
X97947051Y-101158590D01*
X97947053Y-101158592D01*
X98089041Y-101242564D01*
X98130816Y-101254701D01*
X98247447Y-101288586D01*
X98247450Y-101288586D01*
X98247452Y-101288587D01*
X98284466Y-101291500D01*
X98284474Y-101291500D01*
X99635526Y-101291500D01*
X99635534Y-101291500D01*
X99672548Y-101288587D01*
X99672550Y-101288586D01*
X99672552Y-101288586D01*
X99714323Y-101276449D01*
X99830959Y-101242564D01*
X99972947Y-101158592D01*
X100089592Y-101041947D01*
X100123268Y-100985003D01*
X100174337Y-100937321D01*
X100243079Y-100924817D01*
X100307668Y-100951462D01*
X100336732Y-100985004D01*
X100370406Y-101041944D01*
X100370412Y-101041952D01*
X100487047Y-101158587D01*
X100487051Y-101158590D01*
X100487053Y-101158592D01*
X100629041Y-101242564D01*
X100670816Y-101254701D01*
X100787447Y-101288586D01*
X100787450Y-101288586D01*
X100787452Y-101288587D01*
X100824466Y-101291500D01*
X100824474Y-101291500D01*
X102175526Y-101291500D01*
X102175534Y-101291500D01*
X102212548Y-101288587D01*
X102212550Y-101288586D01*
X102212552Y-101288586D01*
X102254323Y-101276449D01*
X102370959Y-101242564D01*
X102512947Y-101158592D01*
X102629592Y-101041947D01*
X102663268Y-100985003D01*
X102714337Y-100937321D01*
X102783079Y-100924817D01*
X102847668Y-100951462D01*
X102876732Y-100985004D01*
X102910406Y-101041944D01*
X102910412Y-101041952D01*
X103027047Y-101158587D01*
X103027051Y-101158590D01*
X103027053Y-101158592D01*
X103169041Y-101242564D01*
X103210816Y-101254701D01*
X103327447Y-101288586D01*
X103327450Y-101288586D01*
X103327452Y-101288587D01*
X103364466Y-101291500D01*
X103364474Y-101291500D01*
X104715526Y-101291500D01*
X104715534Y-101291500D01*
X104752548Y-101288587D01*
X104752550Y-101288586D01*
X104752552Y-101288586D01*
X104794323Y-101276449D01*
X104910959Y-101242564D01*
X105052947Y-101158592D01*
X105169592Y-101041947D01*
X105203268Y-100985003D01*
X105254337Y-100937321D01*
X105323079Y-100924817D01*
X105387668Y-100951462D01*
X105416732Y-100985004D01*
X105450406Y-101041944D01*
X105450412Y-101041952D01*
X105567047Y-101158587D01*
X105567051Y-101158590D01*
X105567053Y-101158592D01*
X105709041Y-101242564D01*
X105750816Y-101254701D01*
X105867447Y-101288586D01*
X105867450Y-101288586D01*
X105867452Y-101288587D01*
X105904466Y-101291500D01*
X105904474Y-101291500D01*
X107255526Y-101291500D01*
X107255534Y-101291500D01*
X107292548Y-101288587D01*
X107292550Y-101288586D01*
X107292552Y-101288586D01*
X107334323Y-101276449D01*
X107450959Y-101242564D01*
X107592947Y-101158592D01*
X107709592Y-101041947D01*
X107743268Y-100985003D01*
X107794337Y-100937321D01*
X107863079Y-100924817D01*
X107927668Y-100951462D01*
X107956732Y-100985004D01*
X107990406Y-101041944D01*
X107990412Y-101041952D01*
X108107047Y-101158587D01*
X108107051Y-101158590D01*
X108107053Y-101158592D01*
X108249041Y-101242564D01*
X108290816Y-101254701D01*
X108407447Y-101288586D01*
X108407450Y-101288586D01*
X108407452Y-101288587D01*
X108444466Y-101291500D01*
X108444474Y-101291500D01*
X109795526Y-101291500D01*
X109795534Y-101291500D01*
X109832548Y-101288587D01*
X109832550Y-101288586D01*
X109832552Y-101288586D01*
X109874323Y-101276449D01*
X109990959Y-101242564D01*
X110132947Y-101158592D01*
X110249592Y-101041947D01*
X110333564Y-100899959D01*
X110379587Y-100741548D01*
X110382500Y-100704534D01*
X110382500Y-99401577D01*
X113249500Y-99401577D01*
X113249500Y-99598422D01*
X113280290Y-99792826D01*
X113341117Y-99980029D01*
X113430476Y-100155405D01*
X113546172Y-100314646D01*
X113685354Y-100453828D01*
X113844595Y-100569524D01*
X113927455Y-100611743D01*
X114019970Y-100658882D01*
X114019972Y-100658882D01*
X114019975Y-100658884D01*
X114120317Y-100691487D01*
X114207173Y-100719709D01*
X114401578Y-100750500D01*
X114401583Y-100750500D01*
X114598422Y-100750500D01*
X114792826Y-100719709D01*
X114980025Y-100658884D01*
X115155405Y-100569524D01*
X115314646Y-100453828D01*
X115453828Y-100314646D01*
X115569524Y-100155405D01*
X115658884Y-99980025D01*
X115719709Y-99792826D01*
X115750500Y-99598422D01*
X115750500Y-99401577D01*
X115719709Y-99207173D01*
X115685048Y-99100500D01*
X115658884Y-99019975D01*
X115658882Y-99019972D01*
X115658882Y-99019970D01*
X115581814Y-98868716D01*
X115569524Y-98844595D01*
X115453828Y-98685354D01*
X115314646Y-98546172D01*
X115155405Y-98430476D01*
X114980029Y-98341117D01*
X114792826Y-98280290D01*
X114598422Y-98249500D01*
X114598417Y-98249500D01*
X114401583Y-98249500D01*
X114401578Y-98249500D01*
X114207173Y-98280290D01*
X114019970Y-98341117D01*
X113844594Y-98430476D01*
X113753741Y-98496485D01*
X113685354Y-98546172D01*
X113685352Y-98546174D01*
X113685351Y-98546174D01*
X113546174Y-98685351D01*
X113546174Y-98685352D01*
X113546172Y-98685354D01*
X113496485Y-98753741D01*
X113430476Y-98844594D01*
X113341117Y-99019970D01*
X113280290Y-99207173D01*
X113249500Y-99401577D01*
X110382500Y-99401577D01*
X110382500Y-98445466D01*
X110379587Y-98408452D01*
X110333564Y-98250041D01*
X110249592Y-98108053D01*
X110153390Y-98011851D01*
X110140758Y-97997060D01*
X110082984Y-97917539D01*
X109942466Y-97777021D01*
X109942464Y-97777019D01*
X109781694Y-97660213D01*
X109604632Y-97569994D01*
X109604629Y-97569993D01*
X109415637Y-97508587D01*
X109317498Y-97493043D01*
X109219361Y-97477500D01*
X109020639Y-97477500D01*
X108955214Y-97487862D01*
X108824362Y-97508587D01*
X108635370Y-97569993D01*
X108635367Y-97569994D01*
X108458305Y-97660213D01*
X108297533Y-97777021D01*
X108157018Y-97917536D01*
X108099239Y-97997061D01*
X108093960Y-98003821D01*
X108090446Y-98008013D01*
X107990408Y-98108053D01*
X107951564Y-98173733D01*
X107945038Y-98181521D01*
X107924076Y-98195485D01*
X107905662Y-98212679D01*
X107895492Y-98214528D01*
X107886891Y-98220259D01*
X107861703Y-98220674D01*
X107836921Y-98225182D01*
X107827366Y-98221240D01*
X107817031Y-98221411D01*
X107795616Y-98208142D01*
X107772331Y-98198536D01*
X107763308Y-98188123D01*
X107757638Y-98184610D01*
X107754426Y-98177873D01*
X107743268Y-98164996D01*
X107709592Y-98108053D01*
X107613390Y-98011851D01*
X107600758Y-97997060D01*
X107542984Y-97917539D01*
X107402466Y-97777021D01*
X107402464Y-97777019D01*
X107241694Y-97660213D01*
X107064632Y-97569994D01*
X107064629Y-97569993D01*
X106875637Y-97508587D01*
X106777498Y-97493043D01*
X106679361Y-97477500D01*
X106480639Y-97477500D01*
X106415214Y-97487862D01*
X106284362Y-97508587D01*
X106095370Y-97569993D01*
X106095367Y-97569994D01*
X105918305Y-97660213D01*
X105757533Y-97777021D01*
X105617018Y-97917536D01*
X105559239Y-97997061D01*
X105553960Y-98003821D01*
X105550446Y-98008013D01*
X105450408Y-98108053D01*
X105411564Y-98173733D01*
X105405038Y-98181521D01*
X105384076Y-98195485D01*
X105365662Y-98212679D01*
X105355492Y-98214528D01*
X105346891Y-98220259D01*
X105321703Y-98220674D01*
X105296921Y-98225182D01*
X105287366Y-98221240D01*
X105277031Y-98221411D01*
X105255616Y-98208142D01*
X105232331Y-98198536D01*
X105223308Y-98188123D01*
X105217638Y-98184610D01*
X105214426Y-98177873D01*
X105203268Y-98164996D01*
X105169592Y-98108053D01*
X105073390Y-98011851D01*
X105060758Y-97997060D01*
X105002984Y-97917539D01*
X104862466Y-97777021D01*
X104862464Y-97777019D01*
X104701694Y-97660213D01*
X104524632Y-97569994D01*
X104524629Y-97569993D01*
X104335637Y-97508587D01*
X104237498Y-97493043D01*
X104139361Y-97477500D01*
X103940639Y-97477500D01*
X103875214Y-97487862D01*
X103744362Y-97508587D01*
X103555370Y-97569993D01*
X103555367Y-97569994D01*
X103378305Y-97660213D01*
X103217533Y-97777021D01*
X103077018Y-97917536D01*
X103019239Y-97997061D01*
X103013960Y-98003821D01*
X103010446Y-98008013D01*
X102910408Y-98108053D01*
X102871564Y-98173733D01*
X102865038Y-98181521D01*
X102844076Y-98195485D01*
X102825662Y-98212679D01*
X102815492Y-98214528D01*
X102806891Y-98220259D01*
X102781703Y-98220674D01*
X102756921Y-98225182D01*
X102747366Y-98221240D01*
X102737031Y-98221411D01*
X102715616Y-98208142D01*
X102692331Y-98198536D01*
X102683308Y-98188123D01*
X102677638Y-98184610D01*
X102674426Y-98177873D01*
X102663268Y-98164996D01*
X102629592Y-98108053D01*
X102533390Y-98011851D01*
X102520758Y-97997060D01*
X102462984Y-97917539D01*
X102322466Y-97777021D01*
X102322464Y-97777019D01*
X102161694Y-97660213D01*
X101984632Y-97569994D01*
X101984629Y-97569993D01*
X101795637Y-97508587D01*
X101697498Y-97493043D01*
X101599361Y-97477500D01*
X101400639Y-97477500D01*
X101335214Y-97487862D01*
X101204362Y-97508587D01*
X101015370Y-97569993D01*
X101015367Y-97569994D01*
X100838305Y-97660213D01*
X100677533Y-97777021D01*
X100537018Y-97917536D01*
X100479239Y-97997061D01*
X100473960Y-98003821D01*
X100470446Y-98008013D01*
X100370408Y-98108053D01*
X100331564Y-98173733D01*
X100325038Y-98181521D01*
X100304076Y-98195485D01*
X100285662Y-98212679D01*
X100275492Y-98214528D01*
X100266891Y-98220259D01*
X100241703Y-98220674D01*
X100216921Y-98225182D01*
X100207366Y-98221240D01*
X100197031Y-98221411D01*
X100175616Y-98208142D01*
X100152331Y-98198536D01*
X100143308Y-98188123D01*
X100137638Y-98184610D01*
X100134426Y-98177873D01*
X100123268Y-98164996D01*
X100089592Y-98108053D01*
X99993390Y-98011851D01*
X99980758Y-97997060D01*
X99922984Y-97917539D01*
X99782466Y-97777021D01*
X99782464Y-97777019D01*
X99621694Y-97660213D01*
X99444632Y-97569994D01*
X99444629Y-97569993D01*
X99255637Y-97508587D01*
X99157498Y-97493043D01*
X99059361Y-97477500D01*
X98860639Y-97477500D01*
X98795214Y-97487862D01*
X98664362Y-97508587D01*
X98475370Y-97569993D01*
X98475367Y-97569994D01*
X98298305Y-97660213D01*
X98137533Y-97777021D01*
X97997018Y-97917536D01*
X97939239Y-97997061D01*
X97933960Y-98003821D01*
X97930446Y-98008013D01*
X97830408Y-98108053D01*
X97791564Y-98173733D01*
X97785038Y-98181521D01*
X97764076Y-98195485D01*
X97745662Y-98212679D01*
X97735492Y-98214528D01*
X97726891Y-98220259D01*
X97701703Y-98220674D01*
X97676921Y-98225182D01*
X97667366Y-98221240D01*
X97657031Y-98221411D01*
X97635616Y-98208142D01*
X97612331Y-98198536D01*
X97603308Y-98188123D01*
X97597638Y-98184610D01*
X97594426Y-98177873D01*
X97583268Y-98164996D01*
X97549592Y-98108053D01*
X97453390Y-98011851D01*
X97440758Y-97997060D01*
X97382984Y-97917539D01*
X97242466Y-97777021D01*
X97242464Y-97777019D01*
X97081694Y-97660213D01*
X96904632Y-97569994D01*
X96904629Y-97569993D01*
X96715637Y-97508587D01*
X96617498Y-97493043D01*
X96519361Y-97477500D01*
X96320639Y-97477500D01*
X96316920Y-97478089D01*
X96306765Y-97479697D01*
X96237472Y-97470739D01*
X96184022Y-97425741D01*
X96163385Y-97358989D01*
X96182113Y-97291676D01*
X96199685Y-97269548D01*
X96832416Y-96636819D01*
X96893739Y-96603334D01*
X96920097Y-96600500D01*
X122213331Y-96600500D01*
X122213347Y-96600501D01*
X122220943Y-96600501D01*
X122379054Y-96600501D01*
X122379057Y-96600501D01*
X122531785Y-96559577D01*
X122609969Y-96514437D01*
X122668716Y-96480520D01*
X122780520Y-96368716D01*
X122780520Y-96368714D01*
X122790724Y-96358511D01*
X122790730Y-96358504D01*
X122808948Y-96340286D01*
X122870271Y-96306801D01*
X122939963Y-96311785D01*
X122995896Y-96353657D01*
X123002739Y-96363806D01*
X123005707Y-96368716D01*
X123020565Y-96393294D01*
X123141705Y-96514434D01*
X123141707Y-96514435D01*
X123141709Y-96514437D01*
X123288327Y-96603071D01*
X123362391Y-96626150D01*
X123383559Y-96640251D01*
X123406703Y-96650821D01*
X123412151Y-96659298D01*
X123420537Y-96664885D01*
X123430722Y-96688197D01*
X123444477Y-96709599D01*
X123446636Y-96724617D01*
X123448512Y-96728910D01*
X123449500Y-96744534D01*
X123449500Y-96963330D01*
X123449499Y-96963348D01*
X123449499Y-97129054D01*
X123449498Y-97129054D01*
X123490423Y-97281785D01*
X123514526Y-97323531D01*
X123514527Y-97323535D01*
X123569475Y-97418709D01*
X123569481Y-97418717D01*
X123688349Y-97537585D01*
X123688354Y-97537589D01*
X125131284Y-98980520D01*
X125131286Y-98980521D01*
X125131290Y-98980524D01*
X125268209Y-99059573D01*
X125268212Y-99059575D01*
X125268216Y-99059577D01*
X125420943Y-99100501D01*
X125420945Y-99100501D01*
X125586654Y-99100501D01*
X125586670Y-99100500D01*
X151203189Y-99100500D01*
X151203205Y-99100501D01*
X151210801Y-99100501D01*
X151368912Y-99100501D01*
X151368915Y-99100501D01*
X151521643Y-99059577D01*
X151597733Y-99015646D01*
X151658574Y-98980520D01*
X151770378Y-98868716D01*
X151770378Y-98868714D01*
X151780582Y-98858511D01*
X151780586Y-98858506D01*
X153978506Y-96660586D01*
X153978511Y-96660582D01*
X153988714Y-96650378D01*
X153988716Y-96650378D01*
X154100520Y-96538574D01*
X154179577Y-96401642D01*
X154216312Y-96264545D01*
X154220500Y-96248916D01*
X154220500Y-96090801D01*
X154220500Y-95145943D01*
X154209988Y-95106709D01*
X154179577Y-94993215D01*
X154145451Y-94934108D01*
X154145451Y-94934107D01*
X154100522Y-94856287D01*
X154100521Y-94856286D01*
X154100520Y-94856284D01*
X153988716Y-94744480D01*
X153988715Y-94744479D01*
X153984385Y-94740149D01*
X153984374Y-94740139D01*
X153856214Y-94611979D01*
X153822729Y-94550656D01*
X153820515Y-94514836D01*
X153820500Y-94514836D01*
X153820500Y-94514830D01*
X153820373Y-94514825D01*
X153820432Y-94513510D01*
X153820405Y-94513067D01*
X153820500Y-94512026D01*
X153820500Y-93987974D01*
X153814041Y-93916896D01*
X153781411Y-93812181D01*
X153763072Y-93753329D01*
X153719448Y-93681166D01*
X153674437Y-93606709D01*
X153674435Y-93606707D01*
X153674434Y-93606705D01*
X153553294Y-93485565D01*
X153474313Y-93437819D01*
X153406673Y-93396929D01*
X153406671Y-93396928D01*
X153406669Y-93396927D01*
X153406670Y-93396927D01*
X153243104Y-93345959D01*
X153243106Y-93345959D01*
X153214672Y-93343375D01*
X153172026Y-93339500D01*
X152143332Y-93339500D01*
X152076293Y-93319815D01*
X152040635Y-93284993D01*
X152012205Y-93242979D01*
X152012203Y-93242977D01*
X152012200Y-93242972D01*
X151877028Y-93107800D01*
X151877022Y-93107796D01*
X151830597Y-93076380D01*
X151718707Y-93000666D01*
X151718704Y-93000664D01*
X151718703Y-93000664D01*
X151542961Y-92925445D01*
X151356165Y-92884863D01*
X151356166Y-92884863D01*
X151165052Y-92880383D01*
X150976548Y-92912168D01*
X150976541Y-92912170D01*
X150797483Y-92979066D01*
X150797481Y-92979066D01*
X150795931Y-92980012D01*
X150793746Y-92981345D01*
X150729151Y-92999500D01*
X149110853Y-92999500D01*
X149046255Y-92981345D01*
X149042527Y-92979069D01*
X148899000Y-92925447D01*
X148863452Y-92912166D01*
X148674950Y-92880380D01*
X148674949Y-92880380D01*
X148483839Y-92884860D01*
X148297032Y-92925443D01*
X148297026Y-92925445D01*
X148121294Y-93000661D01*
X147962973Y-93107794D01*
X147962970Y-93107797D01*
X147827795Y-93242971D01*
X147799359Y-93284994D01*
X147745485Y-93329484D01*
X147696663Y-93339500D01*
X147185097Y-93339500D01*
X147118058Y-93319815D01*
X147097416Y-93303181D01*
X146432590Y-92638355D01*
X146432588Y-92638352D01*
X146313717Y-92519481D01*
X146313716Y-92519480D01*
X146226904Y-92469360D01*
X146226904Y-92469359D01*
X146226900Y-92469358D01*
X146176785Y-92440423D01*
X146024057Y-92399499D01*
X145865943Y-92399499D01*
X145858347Y-92399499D01*
X145858331Y-92399500D01*
X133123500Y-92399500D01*
X133056461Y-92379815D01*
X133035819Y-92363181D01*
X132411601Y-91738963D01*
X132378116Y-91677640D01*
X132383100Y-91607948D01*
X132424972Y-91552015D01*
X132460960Y-91533352D01*
X132502445Y-91519873D01*
X132656788Y-91441232D01*
X132796928Y-91339414D01*
X132919414Y-91216928D01*
X133021232Y-91076788D01*
X133099873Y-90922445D01*
X133153402Y-90757701D01*
X133180500Y-90586611D01*
X133180500Y-90413389D01*
X143819500Y-90413389D01*
X143819500Y-90586611D01*
X143846598Y-90757701D01*
X143900127Y-90922445D01*
X143978768Y-91076788D01*
X144080586Y-91216928D01*
X144203072Y-91339414D01*
X144343212Y-91441232D01*
X144497555Y-91519873D01*
X144662299Y-91573402D01*
X144833389Y-91600500D01*
X144833390Y-91600500D01*
X145006610Y-91600500D01*
X145006611Y-91600500D01*
X145177701Y-91573402D01*
X145342445Y-91519873D01*
X145496788Y-91441232D01*
X145636928Y-91339414D01*
X145759414Y-91216928D01*
X145861232Y-91076788D01*
X145939873Y-90922445D01*
X145993402Y-90757701D01*
X146020500Y-90586611D01*
X146020500Y-90413389D01*
X146010854Y-90352486D01*
X147749500Y-90352486D01*
X147749500Y-90647513D01*
X147781571Y-90891113D01*
X147788007Y-90939993D01*
X147862212Y-91216930D01*
X147864361Y-91224951D01*
X147864364Y-91224961D01*
X147977254Y-91497500D01*
X147977258Y-91497510D01*
X148124761Y-91752993D01*
X148304352Y-91987040D01*
X148304358Y-91987047D01*
X148512952Y-92195641D01*
X148512959Y-92195647D01*
X148747006Y-92375238D01*
X149002489Y-92522741D01*
X149002490Y-92522741D01*
X149002493Y-92522743D01*
X149275048Y-92635639D01*
X149560007Y-92711993D01*
X149852494Y-92750500D01*
X149852501Y-92750500D01*
X150147499Y-92750500D01*
X150147506Y-92750500D01*
X150439993Y-92711993D01*
X150724952Y-92635639D01*
X150997507Y-92522743D01*
X151252994Y-92375238D01*
X151487042Y-92195646D01*
X151695646Y-91987042D01*
X151875238Y-91752994D01*
X152022743Y-91497507D01*
X152135639Y-91224952D01*
X152211993Y-90939993D01*
X152250500Y-90647506D01*
X152250500Y-90413389D01*
X153979500Y-90413389D01*
X153979500Y-90586611D01*
X154006598Y-90757701D01*
X154060127Y-90922445D01*
X154138768Y-91076788D01*
X154240586Y-91216928D01*
X154363072Y-91339414D01*
X154503212Y-91441232D01*
X154657555Y-91519873D01*
X154822299Y-91573402D01*
X154993389Y-91600500D01*
X154993390Y-91600500D01*
X155166610Y-91600500D01*
X155166611Y-91600500D01*
X155337701Y-91573402D01*
X155502445Y-91519873D01*
X155656788Y-91441232D01*
X155796928Y-91339414D01*
X155919414Y-91216928D01*
X156021232Y-91076788D01*
X156099873Y-90922445D01*
X156153402Y-90757701D01*
X156180500Y-90586611D01*
X156180500Y-90413389D01*
X156153402Y-90242299D01*
X156099873Y-90077555D01*
X156021232Y-89923212D01*
X155919414Y-89783072D01*
X155796928Y-89660586D01*
X155656788Y-89558768D01*
X155502445Y-89480127D01*
X155337701Y-89426598D01*
X155337699Y-89426597D01*
X155337698Y-89426597D01*
X155206271Y-89405781D01*
X155166611Y-89399500D01*
X154993389Y-89399500D01*
X154953728Y-89405781D01*
X154822302Y-89426597D01*
X154657552Y-89480128D01*
X154503211Y-89558768D01*
X154447115Y-89599525D01*
X154363072Y-89660586D01*
X154363070Y-89660588D01*
X154363069Y-89660588D01*
X154240588Y-89783069D01*
X154240588Y-89783070D01*
X154240586Y-89783072D01*
X154236163Y-89789160D01*
X154138768Y-89923211D01*
X154060128Y-90077552D01*
X154006597Y-90242302D01*
X153985527Y-90375333D01*
X153979500Y-90413389D01*
X152250500Y-90413389D01*
X152250500Y-90352494D01*
X152211993Y-90060007D01*
X152135639Y-89775048D01*
X152022743Y-89502493D01*
X151972604Y-89415650D01*
X151875238Y-89247006D01*
X151695647Y-89012959D01*
X151695641Y-89012952D01*
X151487047Y-88804358D01*
X151487040Y-88804352D01*
X151252993Y-88624761D01*
X150997510Y-88477258D01*
X150997500Y-88477254D01*
X150724961Y-88364364D01*
X150724954Y-88364362D01*
X150724952Y-88364361D01*
X150439993Y-88288007D01*
X150391113Y-88281571D01*
X150147513Y-88249500D01*
X150147506Y-88249500D01*
X149852494Y-88249500D01*
X149852486Y-88249500D01*
X149574085Y-88286153D01*
X149560007Y-88288007D01*
X149385861Y-88334669D01*
X149275048Y-88364361D01*
X149275038Y-88364364D01*
X149002499Y-88477254D01*
X149002489Y-88477258D01*
X148747006Y-88624761D01*
X148512959Y-88804352D01*
X148512952Y-88804358D01*
X148304358Y-89012952D01*
X148304352Y-89012959D01*
X148124761Y-89247006D01*
X147977258Y-89502489D01*
X147977254Y-89502499D01*
X147864364Y-89775038D01*
X147864361Y-89775048D01*
X147788008Y-90060004D01*
X147788006Y-90060015D01*
X147749500Y-90352486D01*
X146010854Y-90352486D01*
X145993402Y-90242299D01*
X145939873Y-90077555D01*
X145861232Y-89923212D01*
X145759414Y-89783072D01*
X145707482Y-89731140D01*
X145673997Y-89669817D01*
X145678981Y-89600125D01*
X145720853Y-89544192D01*
X145786317Y-89519775D01*
X145814561Y-89520986D01*
X145815212Y-89521089D01*
X145815215Y-89521090D01*
X146064038Y-89560500D01*
X146064039Y-89560500D01*
X146315961Y-89560500D01*
X146315962Y-89560500D01*
X146564785Y-89521090D01*
X146804379Y-89443241D01*
X147028845Y-89328870D01*
X147232656Y-89180793D01*
X147410793Y-89002656D01*
X147558870Y-88798845D01*
X147673241Y-88574379D01*
X147751090Y-88334785D01*
X147790500Y-88085962D01*
X147790500Y-87834038D01*
X147751090Y-87585215D01*
X147673241Y-87345621D01*
X147673239Y-87345618D01*
X147673239Y-87345616D01*
X147618824Y-87238822D01*
X147558870Y-87121155D01*
X147457107Y-86981090D01*
X147410798Y-86917350D01*
X147410794Y-86917345D01*
X147232654Y-86739205D01*
X147232649Y-86739201D01*
X147028848Y-86591132D01*
X147028847Y-86591131D01*
X147028845Y-86591130D01*
X146958747Y-86555413D01*
X146804383Y-86476760D01*
X146564785Y-86398910D01*
X146315962Y-86359500D01*
X146064038Y-86359500D01*
X145989227Y-86371349D01*
X145815214Y-86398910D01*
X145575616Y-86476760D01*
X145351151Y-86591132D01*
X145147350Y-86739201D01*
X145147345Y-86739205D01*
X144969205Y-86917345D01*
X144969201Y-86917350D01*
X144821132Y-87121151D01*
X144706760Y-87345616D01*
X144628910Y-87585214D01*
X144589500Y-87834038D01*
X144589500Y-88085961D01*
X144628910Y-88334785D01*
X144706760Y-88574383D01*
X144821132Y-88798848D01*
X144969201Y-89002649D01*
X144969205Y-89002654D01*
X144969207Y-89002656D01*
X145147344Y-89180793D01*
X145147345Y-89180794D01*
X145147344Y-89180794D01*
X145153661Y-89185383D01*
X145196327Y-89240714D01*
X145202305Y-89310327D01*
X145169699Y-89372122D01*
X145108860Y-89406479D01*
X145061378Y-89408174D01*
X145006611Y-89399500D01*
X144833389Y-89399500D01*
X144793728Y-89405781D01*
X144662302Y-89426597D01*
X144497552Y-89480128D01*
X144343211Y-89558768D01*
X144287115Y-89599525D01*
X144203072Y-89660586D01*
X144203070Y-89660588D01*
X144203069Y-89660588D01*
X144080588Y-89783069D01*
X144080588Y-89783070D01*
X144080586Y-89783072D01*
X144076163Y-89789160D01*
X143978768Y-89923211D01*
X143900128Y-90077552D01*
X143846597Y-90242302D01*
X143825527Y-90375333D01*
X143819500Y-90413389D01*
X133180500Y-90413389D01*
X133153402Y-90242299D01*
X133099873Y-90077555D01*
X133021232Y-89923212D01*
X132919414Y-89783072D01*
X132796928Y-89660586D01*
X132656788Y-89558768D01*
X132502445Y-89480127D01*
X132337701Y-89426598D01*
X132337699Y-89426597D01*
X132337698Y-89426597D01*
X132206271Y-89405781D01*
X132166611Y-89399500D01*
X131993389Y-89399500D01*
X131953728Y-89405781D01*
X131822302Y-89426597D01*
X131657552Y-89480128D01*
X131503211Y-89558768D01*
X131447115Y-89599525D01*
X131363072Y-89660586D01*
X131363070Y-89660588D01*
X131363069Y-89660588D01*
X131240588Y-89783069D01*
X131240588Y-89783070D01*
X131240586Y-89783072D01*
X131236163Y-89789160D01*
X131138768Y-89923211D01*
X131060128Y-90077550D01*
X131046649Y-90119037D01*
X131007211Y-90176712D01*
X130942852Y-90203910D01*
X130874006Y-90191995D01*
X130841037Y-90168399D01*
X128460992Y-87788355D01*
X128460990Y-87788352D01*
X128342119Y-87669481D01*
X128342118Y-87669480D01*
X128255306Y-87619360D01*
X128255306Y-87619359D01*
X128255302Y-87619358D01*
X128205187Y-87590423D01*
X128052459Y-87549499D01*
X127894345Y-87549499D01*
X127886749Y-87549499D01*
X127886733Y-87549500D01*
X126113268Y-87549500D01*
X126113252Y-87549499D01*
X126105656Y-87549499D01*
X125947541Y-87549499D01*
X125871177Y-87569961D01*
X125794812Y-87590423D01*
X125794807Y-87590426D01*
X125657888Y-87669475D01*
X125657880Y-87669481D01*
X124974898Y-88352462D01*
X124913575Y-88385947D01*
X124843883Y-88380963D01*
X124787950Y-88339091D01*
X124763533Y-88273627D01*
X124764744Y-88245382D01*
X124790000Y-88085927D01*
X124790000Y-87834071D01*
X124750602Y-87585330D01*
X124672780Y-87345815D01*
X124558442Y-87121416D01*
X124484250Y-87019301D01*
X124484250Y-87019300D01*
X123867577Y-87635974D01*
X123854641Y-87604742D01*
X123772563Y-87481903D01*
X123668097Y-87377437D01*
X123545258Y-87295359D01*
X123514024Y-87282421D01*
X124130698Y-86665748D01*
X124028583Y-86591557D01*
X123804184Y-86477219D01*
X123564669Y-86399397D01*
X123315928Y-86360000D01*
X123064072Y-86360000D01*
X122815330Y-86399397D01*
X122575815Y-86477219D01*
X122351413Y-86591559D01*
X122249301Y-86665747D01*
X122249300Y-86665748D01*
X122865974Y-87282421D01*
X122834742Y-87295359D01*
X122711903Y-87377437D01*
X122607437Y-87481903D01*
X122525359Y-87604742D01*
X122512421Y-87635974D01*
X121895748Y-87019300D01*
X121895747Y-87019301D01*
X121821559Y-87121413D01*
X121707219Y-87345815D01*
X121629397Y-87585330D01*
X121590000Y-87834071D01*
X121590000Y-88085928D01*
X121629397Y-88334669D01*
X121707219Y-88574184D01*
X121821557Y-88798583D01*
X121895748Y-88900697D01*
X121895748Y-88900698D01*
X122512421Y-88284024D01*
X122525359Y-88315258D01*
X122607437Y-88438097D01*
X122711903Y-88542563D01*
X122834742Y-88624641D01*
X122865974Y-88637577D01*
X122249300Y-89254250D01*
X122251598Y-89283449D01*
X122237233Y-89351827D01*
X122188181Y-89401583D01*
X122120016Y-89416921D01*
X122108583Y-89415650D01*
X122006611Y-89399500D01*
X121833389Y-89399500D01*
X121793728Y-89405781D01*
X121662302Y-89426597D01*
X121497552Y-89480128D01*
X121343211Y-89558768D01*
X121287115Y-89599525D01*
X121203072Y-89660586D01*
X121203070Y-89660588D01*
X121203069Y-89660588D01*
X121080588Y-89783069D01*
X121080588Y-89783070D01*
X121080586Y-89783072D01*
X121076163Y-89789160D01*
X120978768Y-89923211D01*
X120900128Y-90077552D01*
X120846597Y-90242302D01*
X120825527Y-90375333D01*
X120819500Y-90413389D01*
X120819500Y-90586611D01*
X120846598Y-90757701D01*
X120900127Y-90922445D01*
X120978768Y-91076788D01*
X121080586Y-91216928D01*
X121203072Y-91339414D01*
X121343212Y-91441232D01*
X121497555Y-91519873D01*
X121662299Y-91573402D01*
X121833389Y-91600500D01*
X121833390Y-91600500D01*
X122006610Y-91600500D01*
X122006611Y-91600500D01*
X122177701Y-91573402D01*
X122342445Y-91519873D01*
X122496788Y-91441232D01*
X122636928Y-91339414D01*
X122759414Y-91216928D01*
X122861232Y-91076788D01*
X122939873Y-90922445D01*
X122993402Y-90757701D01*
X123020500Y-90586611D01*
X123020500Y-90413389D01*
X122993402Y-90242299D01*
X122939873Y-90077555D01*
X122861232Y-89923212D01*
X122759414Y-89783072D01*
X122706882Y-89730540D01*
X122673397Y-89669217D01*
X122678381Y-89599525D01*
X122720253Y-89543592D01*
X122785717Y-89519175D01*
X122813961Y-89520386D01*
X123064072Y-89560000D01*
X123315928Y-89560000D01*
X123475384Y-89534744D01*
X123544677Y-89543698D01*
X123598129Y-89588694D01*
X123618769Y-89655446D01*
X123600044Y-89722760D01*
X123594474Y-89730957D01*
X123588987Y-89738374D01*
X123569480Y-89757882D01*
X123554937Y-89783072D01*
X123490423Y-89894813D01*
X123449499Y-90047541D01*
X123449499Y-90047543D01*
X123449499Y-90215644D01*
X123449500Y-90215657D01*
X123449500Y-93255464D01*
X123429815Y-93322503D01*
X123377011Y-93368258D01*
X123362391Y-93373849D01*
X123288331Y-93396927D01*
X123288329Y-93396928D01*
X123141705Y-93485565D01*
X123020565Y-93606705D01*
X122931927Y-93753329D01*
X122880959Y-93916894D01*
X122878010Y-93949343D01*
X122874640Y-93986439D01*
X122874500Y-93987976D01*
X122874500Y-94512029D01*
X122874597Y-94513097D01*
X122874557Y-94513295D01*
X122874627Y-94514821D01*
X122874500Y-94514826D01*
X122874500Y-94514836D01*
X122874297Y-94514836D01*
X122874252Y-94514837D01*
X122861048Y-94581640D01*
X122838785Y-94611978D01*
X122087584Y-95363181D01*
X122026261Y-95396666D01*
X121999903Y-95399500D01*
X96540943Y-95399500D01*
X96388213Y-95440423D01*
X96343236Y-95466392D01*
X96343235Y-95466392D01*
X96251287Y-95519477D01*
X96251282Y-95519481D01*
X96139478Y-95631286D01*
X94294526Y-97476237D01*
X94233203Y-97509722D01*
X94180478Y-97509158D01*
X94180448Y-97509349D01*
X94179156Y-97509144D01*
X94177903Y-97509131D01*
X94175636Y-97508586D01*
X93993232Y-97479697D01*
X93979361Y-97477500D01*
X93780639Y-97477500D01*
X93715214Y-97487862D01*
X93584362Y-97508587D01*
X93395370Y-97569993D01*
X93395367Y-97569994D01*
X93218305Y-97660213D01*
X93057533Y-97777021D01*
X92917018Y-97917536D01*
X92859239Y-97997061D01*
X92846604Y-98011854D01*
X92750413Y-98108046D01*
X92750405Y-98108056D01*
X92666435Y-98250042D01*
X92666434Y-98250045D01*
X92620413Y-98408447D01*
X92620412Y-98408453D01*
X92617500Y-98445458D01*
X91500500Y-98445458D01*
X91500500Y-92709983D01*
X114199500Y-92709983D01*
X114199500Y-93910001D01*
X114199501Y-93910018D01*
X114210000Y-94012796D01*
X114210001Y-94012799D01*
X114232967Y-94082105D01*
X114265186Y-94179334D01*
X114357288Y-94328656D01*
X114481344Y-94452712D01*
X114630666Y-94544814D01*
X114797203Y-94599999D01*
X114899991Y-94610500D01*
X116100008Y-94610499D01*
X116202797Y-94599999D01*
X116369334Y-94544814D01*
X116518656Y-94452712D01*
X116642712Y-94328656D01*
X116734814Y-94179334D01*
X116789999Y-94012797D01*
X116800500Y-93910009D01*
X116800499Y-92709992D01*
X116789999Y-92607203D01*
X116734814Y-92440666D01*
X116642712Y-92291344D01*
X116518656Y-92167288D01*
X116369334Y-92075186D01*
X116202797Y-92020001D01*
X116202795Y-92020000D01*
X116100010Y-92009500D01*
X114899998Y-92009500D01*
X114899981Y-92009501D01*
X114797203Y-92020000D01*
X114797200Y-92020001D01*
X114630668Y-92075185D01*
X114630663Y-92075187D01*
X114481342Y-92167289D01*
X114357289Y-92291342D01*
X114265187Y-92440663D01*
X114265186Y-92440666D01*
X114210001Y-92607203D01*
X114210001Y-92607204D01*
X114210000Y-92607204D01*
X114199500Y-92709983D01*
X91500500Y-92709983D01*
X91500500Y-85587682D01*
X114200000Y-85587682D01*
X114200000Y-85792317D01*
X114232009Y-85994417D01*
X114295244Y-86189031D01*
X114388141Y-86371350D01*
X114388147Y-86371359D01*
X114420523Y-86415921D01*
X114420524Y-86415922D01*
X115100000Y-85736446D01*
X115100000Y-85742661D01*
X115127259Y-85844394D01*
X115179920Y-85935606D01*
X115254394Y-86010080D01*
X115345606Y-86062741D01*
X115447339Y-86090000D01*
X115453553Y-86090000D01*
X114774076Y-86769474D01*
X114818650Y-86801859D01*
X115000968Y-86894755D01*
X115195582Y-86957990D01*
X115397683Y-86990000D01*
X115602317Y-86990000D01*
X115804417Y-86957990D01*
X115999031Y-86894755D01*
X116181349Y-86801859D01*
X116225921Y-86769474D01*
X115546447Y-86090000D01*
X115552661Y-86090000D01*
X115654394Y-86062741D01*
X115745606Y-86010080D01*
X115820080Y-85935606D01*
X115872741Y-85844394D01*
X115900000Y-85742661D01*
X115900000Y-85736447D01*
X116579474Y-86415921D01*
X116611859Y-86371349D01*
X116704755Y-86189031D01*
X116767990Y-85994417D01*
X116800000Y-85792317D01*
X116800000Y-85587682D01*
X116767989Y-85385581D01*
X116767989Y-85385578D01*
X116749113Y-85327484D01*
X116738245Y-85294038D01*
X127939500Y-85294038D01*
X127939500Y-85545961D01*
X127978910Y-85794785D01*
X128056760Y-86034383D01*
X128171132Y-86258848D01*
X128319201Y-86462649D01*
X128319205Y-86462654D01*
X128497345Y-86640794D01*
X128497350Y-86640798D01*
X128674459Y-86769474D01*
X128701155Y-86788870D01*
X128844184Y-86861747D01*
X128925616Y-86903239D01*
X128925618Y-86903239D01*
X128925621Y-86903241D01*
X129165215Y-86981090D01*
X129414038Y-87020500D01*
X129414039Y-87020500D01*
X129665961Y-87020500D01*
X129665962Y-87020500D01*
X129914785Y-86981090D01*
X130154379Y-86903241D01*
X130378845Y-86788870D01*
X130582656Y-86640793D01*
X130635801Y-86587648D01*
X137199500Y-86587648D01*
X137199500Y-86792351D01*
X137231522Y-86994534D01*
X137294781Y-87189223D01*
X137348861Y-87295359D01*
X137374468Y-87345616D01*
X137387715Y-87371613D01*
X137508028Y-87537213D01*
X137652786Y-87681971D01*
X137789484Y-87781286D01*
X137818390Y-87802287D01*
X137880770Y-87834071D01*
X138000776Y-87895218D01*
X138000778Y-87895218D01*
X138000781Y-87895220D01*
X138105137Y-87929127D01*
X138195465Y-87958477D01*
X138296557Y-87974488D01*
X138397648Y-87990500D01*
X138397649Y-87990500D01*
X138602351Y-87990500D01*
X138602352Y-87990500D01*
X138804534Y-87958477D01*
X138999219Y-87895220D01*
X139181610Y-87802287D01*
X139274590Y-87734732D01*
X139347213Y-87681971D01*
X139347215Y-87681968D01*
X139347219Y-87681966D01*
X139491966Y-87537219D01*
X139491968Y-87537215D01*
X139491971Y-87537213D01*
X139608053Y-87377437D01*
X139612287Y-87371610D01*
X139705220Y-87189219D01*
X139768477Y-86994534D01*
X139800500Y-86792352D01*
X139800500Y-86587648D01*
X139785841Y-86495095D01*
X139768477Y-86385465D01*
X139705218Y-86190776D01*
X139630203Y-86043553D01*
X139612287Y-86008390D01*
X139559407Y-85935606D01*
X139491971Y-85842786D01*
X139347213Y-85698028D01*
X139181613Y-85577715D01*
X139181612Y-85577714D01*
X139181610Y-85577713D01*
X139119293Y-85545961D01*
X138999223Y-85484781D01*
X138804534Y-85421522D01*
X138742130Y-85411639D01*
X138728018Y-85409403D01*
X138602352Y-85389500D01*
X138397648Y-85389500D01*
X138373329Y-85393351D01*
X138195465Y-85421522D01*
X138000776Y-85484781D01*
X137818386Y-85577715D01*
X137652786Y-85698028D01*
X137508028Y-85842786D01*
X137387715Y-86008386D01*
X137294781Y-86190776D01*
X137231522Y-86385465D01*
X137199500Y-86587648D01*
X130635801Y-86587648D01*
X130760793Y-86462656D01*
X130908870Y-86258845D01*
X131023241Y-86034379D01*
X131101090Y-85794785D01*
X131140500Y-85545962D01*
X131140500Y-85294038D01*
X150939500Y-85294038D01*
X150939500Y-85545961D01*
X150978910Y-85794785D01*
X151056760Y-86034383D01*
X151171132Y-86258848D01*
X151319201Y-86462649D01*
X151319205Y-86462654D01*
X151497345Y-86640794D01*
X151497350Y-86640798D01*
X151674459Y-86769474D01*
X151701155Y-86788870D01*
X151844184Y-86861747D01*
X151925616Y-86903239D01*
X151925618Y-86903239D01*
X151925621Y-86903241D01*
X152165215Y-86981090D01*
X152414038Y-87020500D01*
X152414039Y-87020500D01*
X152665961Y-87020500D01*
X152665962Y-87020500D01*
X152914785Y-86981090D01*
X153154379Y-86903241D01*
X153378845Y-86788870D01*
X153582656Y-86640793D01*
X153760793Y-86462656D01*
X153908870Y-86258845D01*
X154023241Y-86034379D01*
X154101090Y-85794785D01*
X154140500Y-85545962D01*
X154140500Y-85294038D01*
X154101090Y-85045215D01*
X154023241Y-84805621D01*
X154023239Y-84805618D01*
X154023239Y-84805616D01*
X153981747Y-84724184D01*
X153908870Y-84581155D01*
X153839187Y-84485244D01*
X153760798Y-84377350D01*
X153760794Y-84377345D01*
X153582654Y-84199205D01*
X153582649Y-84199201D01*
X153378848Y-84051132D01*
X153378847Y-84051131D01*
X153378845Y-84051130D01*
X153307577Y-84014817D01*
X153154383Y-83936760D01*
X152914785Y-83858910D01*
X152665962Y-83819500D01*
X152414038Y-83819500D01*
X152289626Y-83839205D01*
X152165214Y-83858910D01*
X151925616Y-83936760D01*
X151701151Y-84051132D01*
X151497350Y-84199201D01*
X151497345Y-84199205D01*
X151319205Y-84377345D01*
X151319201Y-84377350D01*
X151171132Y-84581151D01*
X151056760Y-84805616D01*
X150978910Y-85045214D01*
X150939500Y-85294038D01*
X131140500Y-85294038D01*
X131101090Y-85045215D01*
X131023241Y-84805621D01*
X131023239Y-84805618D01*
X131023239Y-84805616D01*
X130981747Y-84724184D01*
X130908870Y-84581155D01*
X130839187Y-84485244D01*
X130760798Y-84377350D01*
X130760794Y-84377345D01*
X130582654Y-84199205D01*
X130582649Y-84199201D01*
X130378848Y-84051132D01*
X130378847Y-84051131D01*
X130378845Y-84051130D01*
X130307577Y-84014817D01*
X130154383Y-83936760D01*
X129914785Y-83858910D01*
X129665962Y-83819500D01*
X129414038Y-83819500D01*
X129289626Y-83839205D01*
X129165214Y-83858910D01*
X128925616Y-83936760D01*
X128701151Y-84051132D01*
X128497350Y-84199201D01*
X128497345Y-84199205D01*
X128319205Y-84377345D01*
X128319201Y-84377350D01*
X128171132Y-84581151D01*
X128056760Y-84805616D01*
X127978910Y-85045214D01*
X127939500Y-85294038D01*
X116738245Y-85294038D01*
X116704755Y-85190968D01*
X116611859Y-85008650D01*
X116579474Y-84964077D01*
X116579474Y-84964076D01*
X115900000Y-85643551D01*
X115900000Y-85637339D01*
X115872741Y-85535606D01*
X115820080Y-85444394D01*
X115745606Y-85369920D01*
X115654394Y-85317259D01*
X115552661Y-85290000D01*
X115546446Y-85290000D01*
X116225922Y-84610524D01*
X116225921Y-84610523D01*
X116181359Y-84578147D01*
X116181350Y-84578141D01*
X115999031Y-84485244D01*
X115804417Y-84422009D01*
X115602317Y-84390000D01*
X115397683Y-84390000D01*
X115195582Y-84422009D01*
X115000968Y-84485244D01*
X114818644Y-84578143D01*
X114774077Y-84610523D01*
X114774077Y-84610524D01*
X115453554Y-85290000D01*
X115447339Y-85290000D01*
X115345606Y-85317259D01*
X115254394Y-85369920D01*
X115179920Y-85444394D01*
X115127259Y-85535606D01*
X115100000Y-85637339D01*
X115100000Y-85643553D01*
X114420524Y-84964077D01*
X114420523Y-84964077D01*
X114388143Y-85008644D01*
X114295244Y-85190968D01*
X114232009Y-85385582D01*
X114200000Y-85587682D01*
X91500500Y-85587682D01*
X91500500Y-81535458D01*
X92617500Y-81535458D01*
X92617500Y-83794541D01*
X92620412Y-83831546D01*
X92620413Y-83831552D01*
X92666434Y-83989954D01*
X92666435Y-83989957D01*
X92750405Y-84131943D01*
X92750406Y-84131944D01*
X92750408Y-84131947D01*
X92846608Y-84228147D01*
X92859240Y-84242938D01*
X92917019Y-84322464D01*
X93057536Y-84462981D01*
X93218306Y-84579787D01*
X93305149Y-84624035D01*
X93395367Y-84670005D01*
X93395370Y-84670006D01*
X93489866Y-84700709D01*
X93584364Y-84731413D01*
X93780639Y-84762500D01*
X93780640Y-84762500D01*
X93979360Y-84762500D01*
X93979361Y-84762500D01*
X94175636Y-84731413D01*
X94364632Y-84670005D01*
X94541694Y-84579787D01*
X94702464Y-84462981D01*
X94842981Y-84322464D01*
X94900762Y-84242933D01*
X94906039Y-84236175D01*
X94909537Y-84232000D01*
X95009592Y-84131947D01*
X95048439Y-84066259D01*
X95054962Y-84058477D01*
X95075927Y-84044509D01*
X95094337Y-84027321D01*
X95104505Y-84025471D01*
X95113110Y-84019739D01*
X95138299Y-84019324D01*
X95163079Y-84014817D01*
X95172634Y-84018759D01*
X95182970Y-84018589D01*
X95204379Y-84031854D01*
X95227668Y-84041462D01*
X95236691Y-84051875D01*
X95242363Y-84055390D01*
X95245575Y-84062128D01*
X95256732Y-84075004D01*
X95290405Y-84131943D01*
X95290408Y-84131947D01*
X95386608Y-84228147D01*
X95399240Y-84242938D01*
X95457019Y-84322464D01*
X95597536Y-84462981D01*
X95758306Y-84579787D01*
X95845149Y-84624035D01*
X95935367Y-84670005D01*
X95935370Y-84670006D01*
X96029866Y-84700709D01*
X96124364Y-84731413D01*
X96320639Y-84762500D01*
X96320640Y-84762500D01*
X96519360Y-84762500D01*
X96519361Y-84762500D01*
X96715636Y-84731413D01*
X96904632Y-84670005D01*
X97081694Y-84579787D01*
X97242464Y-84462981D01*
X97382981Y-84322464D01*
X97440762Y-84242933D01*
X97446039Y-84236175D01*
X97449537Y-84232000D01*
X97549592Y-84131947D01*
X97588439Y-84066259D01*
X97594962Y-84058477D01*
X97615927Y-84044509D01*
X97634337Y-84027321D01*
X97644505Y-84025471D01*
X97653110Y-84019739D01*
X97678299Y-84019324D01*
X97703079Y-84014817D01*
X97712634Y-84018759D01*
X97722970Y-84018589D01*
X97744379Y-84031854D01*
X97767668Y-84041462D01*
X97776691Y-84051875D01*
X97782363Y-84055390D01*
X97785575Y-84062128D01*
X97796732Y-84075004D01*
X97830405Y-84131943D01*
X97830408Y-84131947D01*
X97926608Y-84228147D01*
X97939240Y-84242938D01*
X97997019Y-84322464D01*
X98137536Y-84462981D01*
X98298306Y-84579787D01*
X98385149Y-84624035D01*
X98475367Y-84670005D01*
X98475370Y-84670006D01*
X98569866Y-84700709D01*
X98664364Y-84731413D01*
X98860639Y-84762500D01*
X98860640Y-84762500D01*
X99059360Y-84762500D01*
X99059361Y-84762500D01*
X99255636Y-84731413D01*
X99444632Y-84670005D01*
X99621694Y-84579787D01*
X99782464Y-84462981D01*
X99922981Y-84322464D01*
X99980762Y-84242933D01*
X99986039Y-84236175D01*
X99989537Y-84232000D01*
X100089592Y-84131947D01*
X100128439Y-84066259D01*
X100134962Y-84058477D01*
X100155927Y-84044509D01*
X100174337Y-84027321D01*
X100184505Y-84025471D01*
X100193110Y-84019739D01*
X100218299Y-84019324D01*
X100243079Y-84014817D01*
X100252634Y-84018759D01*
X100262970Y-84018589D01*
X100284379Y-84031854D01*
X100307668Y-84041462D01*
X100316691Y-84051875D01*
X100322363Y-84055390D01*
X100325575Y-84062128D01*
X100336732Y-84075004D01*
X100370405Y-84131943D01*
X100370408Y-84131947D01*
X100466608Y-84228147D01*
X100479240Y-84242938D01*
X100537019Y-84322464D01*
X100677536Y-84462981D01*
X100838306Y-84579787D01*
X100925149Y-84624035D01*
X101015367Y-84670005D01*
X101015370Y-84670006D01*
X101109866Y-84700709D01*
X101204364Y-84731413D01*
X101400639Y-84762500D01*
X101400640Y-84762500D01*
X101599360Y-84762500D01*
X101599361Y-84762500D01*
X101795636Y-84731413D01*
X101984632Y-84670005D01*
X102161694Y-84579787D01*
X102322464Y-84462981D01*
X102462981Y-84322464D01*
X102520762Y-84242933D01*
X102526039Y-84236175D01*
X102529537Y-84232000D01*
X102629592Y-84131947D01*
X102668439Y-84066259D01*
X102674962Y-84058477D01*
X102695927Y-84044509D01*
X102714337Y-84027321D01*
X102724505Y-84025471D01*
X102733110Y-84019739D01*
X102758299Y-84019324D01*
X102783079Y-84014817D01*
X102792634Y-84018759D01*
X102802970Y-84018589D01*
X102824379Y-84031854D01*
X102847668Y-84041462D01*
X102856691Y-84051875D01*
X102862363Y-84055390D01*
X102865575Y-84062128D01*
X102876732Y-84075004D01*
X102910405Y-84131943D01*
X102910408Y-84131947D01*
X103006608Y-84228147D01*
X103019240Y-84242938D01*
X103077019Y-84322464D01*
X103217536Y-84462981D01*
X103378306Y-84579787D01*
X103465149Y-84624035D01*
X103555367Y-84670005D01*
X103555370Y-84670006D01*
X103649866Y-84700709D01*
X103744364Y-84731413D01*
X103940639Y-84762500D01*
X103940640Y-84762500D01*
X104139360Y-84762500D01*
X104139361Y-84762500D01*
X104335636Y-84731413D01*
X104524632Y-84670005D01*
X104701694Y-84579787D01*
X104862464Y-84462981D01*
X105002981Y-84322464D01*
X105060762Y-84242933D01*
X105066039Y-84236175D01*
X105069537Y-84232000D01*
X105169592Y-84131947D01*
X105208439Y-84066259D01*
X105214962Y-84058477D01*
X105235927Y-84044509D01*
X105254337Y-84027321D01*
X105264505Y-84025471D01*
X105273110Y-84019739D01*
X105298299Y-84019324D01*
X105323079Y-84014817D01*
X105332634Y-84018759D01*
X105342970Y-84018589D01*
X105364379Y-84031854D01*
X105387668Y-84041462D01*
X105396691Y-84051875D01*
X105402363Y-84055390D01*
X105405575Y-84062128D01*
X105416732Y-84075004D01*
X105450405Y-84131943D01*
X105450408Y-84131947D01*
X105546608Y-84228147D01*
X105559240Y-84242938D01*
X105617019Y-84322464D01*
X105757536Y-84462981D01*
X105918306Y-84579787D01*
X106005149Y-84624035D01*
X106095367Y-84670005D01*
X106095370Y-84670006D01*
X106189866Y-84700709D01*
X106284364Y-84731413D01*
X106480639Y-84762500D01*
X106480640Y-84762500D01*
X106679360Y-84762500D01*
X106679361Y-84762500D01*
X106875636Y-84731413D01*
X107064632Y-84670005D01*
X107241694Y-84579787D01*
X107402464Y-84462981D01*
X107542981Y-84322464D01*
X107600762Y-84242933D01*
X107606039Y-84236175D01*
X107609537Y-84232000D01*
X107709592Y-84131947D01*
X107748439Y-84066259D01*
X107754962Y-84058477D01*
X107775927Y-84044509D01*
X107794337Y-84027321D01*
X107804505Y-84025471D01*
X107813110Y-84019739D01*
X107838299Y-84019324D01*
X107863079Y-84014817D01*
X107872634Y-84018759D01*
X107882970Y-84018589D01*
X107904379Y-84031854D01*
X107927668Y-84041462D01*
X107936691Y-84051875D01*
X107942363Y-84055390D01*
X107945575Y-84062128D01*
X107956732Y-84075004D01*
X107990405Y-84131943D01*
X107990408Y-84131947D01*
X108086608Y-84228147D01*
X108099240Y-84242938D01*
X108157019Y-84322464D01*
X108297536Y-84462981D01*
X108458306Y-84579787D01*
X108545149Y-84624035D01*
X108635367Y-84670005D01*
X108635370Y-84670006D01*
X108729866Y-84700709D01*
X108824364Y-84731413D01*
X109020639Y-84762500D01*
X109020640Y-84762500D01*
X109219360Y-84762500D01*
X109219361Y-84762500D01*
X109415636Y-84731413D01*
X109604632Y-84670005D01*
X109781694Y-84579787D01*
X109942464Y-84462981D01*
X110082981Y-84322464D01*
X110140760Y-84242936D01*
X110153389Y-84228148D01*
X110249592Y-84131947D01*
X110333564Y-83989959D01*
X110379587Y-83831548D01*
X110382500Y-83794534D01*
X110382500Y-81535466D01*
X110379587Y-81498452D01*
X110374233Y-81480025D01*
X110333565Y-81340045D01*
X110333564Y-81340042D01*
X110333564Y-81340041D01*
X110249592Y-81198053D01*
X110249590Y-81198051D01*
X110249587Y-81198047D01*
X110132952Y-81081412D01*
X110132943Y-81081405D01*
X110001116Y-81003443D01*
X109990957Y-80997435D01*
X109990954Y-80997434D01*
X109832552Y-80951413D01*
X109832546Y-80951412D01*
X109795541Y-80948500D01*
X109795534Y-80948500D01*
X108444466Y-80948500D01*
X108444458Y-80948500D01*
X108407453Y-80951412D01*
X108407447Y-80951413D01*
X108249045Y-80997434D01*
X108249042Y-80997435D01*
X108107056Y-81081405D01*
X108107047Y-81081412D01*
X107990412Y-81198047D01*
X107990408Y-81198053D01*
X107956732Y-81254996D01*
X107905662Y-81302679D01*
X107836921Y-81315182D01*
X107772331Y-81288536D01*
X107743268Y-81254996D01*
X107709592Y-81198053D01*
X107709589Y-81198050D01*
X107709587Y-81198047D01*
X107592952Y-81081412D01*
X107592943Y-81081405D01*
X107450957Y-80997435D01*
X107450954Y-80997434D01*
X107292552Y-80951413D01*
X107292546Y-80951412D01*
X107255541Y-80948500D01*
X107255534Y-80948500D01*
X105904466Y-80948500D01*
X105904458Y-80948500D01*
X105867453Y-80951412D01*
X105867447Y-80951413D01*
X105709045Y-80997434D01*
X105709042Y-80997435D01*
X105567056Y-81081405D01*
X105567047Y-81081412D01*
X105450412Y-81198047D01*
X105450408Y-81198053D01*
X105416732Y-81254996D01*
X105365662Y-81302679D01*
X105296921Y-81315182D01*
X105232331Y-81288536D01*
X105203268Y-81254996D01*
X105169592Y-81198053D01*
X105169589Y-81198050D01*
X105169587Y-81198047D01*
X105052952Y-81081412D01*
X105052943Y-81081405D01*
X104910957Y-80997435D01*
X104910954Y-80997434D01*
X104752552Y-80951413D01*
X104752546Y-80951412D01*
X104715541Y-80948500D01*
X104715534Y-80948500D01*
X103364466Y-80948500D01*
X103364458Y-80948500D01*
X103327453Y-80951412D01*
X103327447Y-80951413D01*
X103169045Y-80997434D01*
X103169042Y-80997435D01*
X103027056Y-81081405D01*
X103027047Y-81081412D01*
X102910412Y-81198047D01*
X102910408Y-81198053D01*
X102876732Y-81254996D01*
X102825662Y-81302679D01*
X102756921Y-81315182D01*
X102692331Y-81288536D01*
X102663268Y-81254996D01*
X102629592Y-81198053D01*
X102629589Y-81198050D01*
X102629587Y-81198047D01*
X102512952Y-81081412D01*
X102512943Y-81081405D01*
X102370957Y-80997435D01*
X102370954Y-80997434D01*
X102212552Y-80951413D01*
X102212546Y-80951412D01*
X102175541Y-80948500D01*
X102175534Y-80948500D01*
X100824466Y-80948500D01*
X100824458Y-80948500D01*
X100787453Y-80951412D01*
X100787447Y-80951413D01*
X100629045Y-80997434D01*
X100629042Y-80997435D01*
X100487056Y-81081405D01*
X100487047Y-81081412D01*
X100370412Y-81198047D01*
X100370408Y-81198053D01*
X100336732Y-81254996D01*
X100285662Y-81302679D01*
X100216921Y-81315182D01*
X100152331Y-81288536D01*
X100123268Y-81254996D01*
X100089592Y-81198053D01*
X100089589Y-81198050D01*
X100089587Y-81198047D01*
X99972952Y-81081412D01*
X99972943Y-81081405D01*
X99830957Y-80997435D01*
X99830954Y-80997434D01*
X99672552Y-80951413D01*
X99672546Y-80951412D01*
X99635541Y-80948500D01*
X99635534Y-80948500D01*
X98284466Y-80948500D01*
X98284458Y-80948500D01*
X98247453Y-80951412D01*
X98247447Y-80951413D01*
X98089045Y-80997434D01*
X98089042Y-80997435D01*
X97947056Y-81081405D01*
X97947047Y-81081412D01*
X97830412Y-81198047D01*
X97830408Y-81198053D01*
X97796732Y-81254996D01*
X97745662Y-81302679D01*
X97676921Y-81315182D01*
X97612331Y-81288536D01*
X97583268Y-81254996D01*
X97549592Y-81198053D01*
X97549589Y-81198050D01*
X97549587Y-81198047D01*
X97432952Y-81081412D01*
X97432943Y-81081405D01*
X97290957Y-80997435D01*
X97290954Y-80997434D01*
X97132552Y-80951413D01*
X97132546Y-80951412D01*
X97095541Y-80948500D01*
X97095534Y-80948500D01*
X95744466Y-80948500D01*
X95744458Y-80948500D01*
X95707453Y-80951412D01*
X95707447Y-80951413D01*
X95549045Y-80997434D01*
X95549042Y-80997435D01*
X95407056Y-81081405D01*
X95407047Y-81081412D01*
X95290412Y-81198047D01*
X95290408Y-81198053D01*
X95256732Y-81254996D01*
X95205662Y-81302679D01*
X95136921Y-81315182D01*
X95072331Y-81288536D01*
X95043268Y-81254996D01*
X95009592Y-81198053D01*
X95009589Y-81198050D01*
X95009587Y-81198047D01*
X94892952Y-81081412D01*
X94892943Y-81081405D01*
X94750957Y-80997435D01*
X94750954Y-80997434D01*
X94592552Y-80951413D01*
X94592546Y-80951412D01*
X94555541Y-80948500D01*
X94555534Y-80948500D01*
X93204466Y-80948500D01*
X93204458Y-80948500D01*
X93167453Y-80951412D01*
X93167447Y-80951413D01*
X93009045Y-80997434D01*
X93009042Y-80997435D01*
X92867056Y-81081405D01*
X92867047Y-81081412D01*
X92750412Y-81198047D01*
X92750405Y-81198056D01*
X92666435Y-81340042D01*
X92666434Y-81340045D01*
X92620413Y-81498447D01*
X92620412Y-81498453D01*
X92617500Y-81535458D01*
X91500500Y-81535458D01*
X91500500Y-80901577D01*
X113249500Y-80901577D01*
X113249500Y-81098422D01*
X113280290Y-81292826D01*
X113341117Y-81480029D01*
X113430476Y-81655405D01*
X113546172Y-81814646D01*
X113685354Y-81953828D01*
X113844595Y-82069524D01*
X113927455Y-82111743D01*
X114019970Y-82158882D01*
X114019972Y-82158882D01*
X114019975Y-82158884D01*
X114120317Y-82191487D01*
X114207173Y-82219709D01*
X114401578Y-82250500D01*
X114401583Y-82250500D01*
X114598422Y-82250500D01*
X114792826Y-82219709D01*
X114980025Y-82158884D01*
X115155405Y-82069524D01*
X115314646Y-81953828D01*
X115453828Y-81814646D01*
X115569524Y-81655405D01*
X115658884Y-81480025D01*
X115719709Y-81292826D01*
X115734719Y-81198056D01*
X115750500Y-81098422D01*
X115750500Y-80901577D01*
X115719709Y-80707173D01*
X115658882Y-80519970D01*
X115569523Y-80344594D01*
X115453828Y-80185354D01*
X115314646Y-80046172D01*
X115155405Y-79930476D01*
X114980029Y-79841117D01*
X114792826Y-79780290D01*
X114598422Y-79749500D01*
X114598417Y-79749500D01*
X114401583Y-79749500D01*
X114401578Y-79749500D01*
X114207173Y-79780290D01*
X114019970Y-79841117D01*
X113844594Y-79930476D01*
X113753741Y-79996485D01*
X113685354Y-80046172D01*
X113685352Y-80046174D01*
X113685351Y-80046174D01*
X113546174Y-80185351D01*
X113546174Y-80185352D01*
X113546172Y-80185354D01*
X113496485Y-80253741D01*
X113430476Y-80344594D01*
X113341117Y-80519970D01*
X113280290Y-80707173D01*
X113249500Y-80901577D01*
X91500500Y-80901577D01*
X91500500Y-78624500D01*
X91520185Y-78557461D01*
X91572989Y-78511706D01*
X91624500Y-78500500D01*
X161375500Y-78500500D01*
X161442539Y-78520185D01*
G37*
%TD.AperFunction*%
%TD*%
M02*
